{"title":"Kiisuke Auh [DVDrip] eesti keeles by Jann1.avi","uid":8238746,"size":2102649850,"categoryP":"video","categoryS":"movies","magnet":"?xt=urn:btih:34b0e9c9173eaa48ecbb0f20c99ca417dccdf90b&amp;dn=Kiisuke+Auh+%5BDVDrip%5D+eesti+keeles+by+Jann1.avi&amp;tr=udp%3A%2F%2Ftracker.openbittorrent.com%3A80&amp;tr=udp%3A%2F%2Fopen.demonii.com%3A1337&amp;tr=udp%3A%2F%2Ftracker.coppersurfer.tk%3A6969&amp;tr=udp%3A%2F%2Fexodus.desync.com%3A6969","seeders":2,"leechers":0,"uploader":"Jann1","files":-1,"time":1362915994,"description":"Video\nID                                       : 0\nFormat                                   : MPEG-4 Visual\nFormat profile                           : Simple@L1\nFormat settings, BVOP                    : No\nFormat settings, QPel                    : No\nFormat settings, GMC                     : No warppoints\nFormat settings, Matrix                  : Default (H.263)\nCodec ID                                 : DX50\nCodec ID/Hint                            : DivX 5\nDuration                                 : 1h 54mn\nBit rate                                 : 2 000 Kbps\nWidth                                    : 720 pixels\nHeight                                   : 540 pixels\nDisplay aspect ratio                     : 4:3\nFrame rate                               : 25.000 fps\nColor space                              : YUV\nChroma subsampling                       : 4:2:0\nBit depth                                : 8 bits\nScan type                                : Progressive\nCompression mode                         : Lossy\nBits/(Pixel*Frame)                       : 0.206\nStream size                              : 1.60 GiB (82%)\nWriting library                          : Lavc54.79.100\n\nAudio\nID                                       : 1\nFormat                                   : AC-3\nFormat/Info                              : Audio Coding 3\nMode extension                           : CM (complete main)\nFormat settings, Endianness              : Big\nCodec ID                                 : 2000\nDuration                                 : 1h 54mn\nBit rate mode                            : Constant\nBit rate                                 : 448 Kbps\nChannel(s)                               : 6 channels\nChannel positions                        : Front: L C R, Side: L R, LFE\nSampling rate                            : 48.0 KHz\nBit depth                                : 16 bits\nCompression mode                         : Lossy\nStream size                              : 366 MiB (18%)\nAlignment                                : Split accross interleaves\nInterleave, duration                     : 500 ms (12.51 video frames)\nInterleave, preload duration             : 500 ms\nLanguage                                 : Estonian only","torrent":{"xt":"urn:btih:34b0e9c9173eaa48ecbb0f20c99ca417dccdf90b","amp;dn":"Kiisuke+Auh+%5BDVDrip%5D+eesti+keeles+by+Jann1.avi","amp;tr":["udp%3A%2F%2Ftracker.openbittorrent.com%3A80","udp%3A%2F%2Fopen.demonii.com%3A1337","udp%3A%2F%2Ftracker.coppersurfer.tk%3A6969","udp%3A%2F%2Fexodus.desync.com%3A6969"],"infoHash":"34b0e9c9173eaa48ecbb0f20c99ca417dccdf90b","infoHashBuffer":{"type":"Buffer","data":[52,176,233,201,23,62,170,72,236,187,15,32,201,156,164,23,220,205,249,11]},"announce":[],"urlList":[]}}